<?xml version="1.0" encoding="UTF-8"?>
<!DOCTYPE svg PUBLIC "-//W3C//DTD SVG 1.1//EN" "http://www.w3.org/Graphics/SVG/1.1/DTD/svg11.dtd">
<!-- Creator: CorelDRAW 2021 (64-Bit) -->
<svg xmlns="http://www.w3.org/2000/svg" xml:space="preserve" width="51.8604mm" height="6.3168mm" version="1.1" style="shape-rendering:geometricPrecision; text-rendering:geometricPrecision; image-rendering:optimizeQuality; fill-rule:evenodd; clip-rule:evenodd"
viewBox="0 0 6234.82 759.43"
 xmlns:xlink="http://www.w3.org/1999/xlink"
 xmlns:xodm="http://www.corel.com/coreldraw/odm/2003">
 <defs>
  <style type="text/css">
   <![CDATA[
    .fil0 {fill:white;fill-rule:nonzero}
   ]]>
  </style>
 </defs>
 <g id="Capa_x0020_1">
  <metadata id="CorelCorpID_0Corel-Layer"/>
  <g id="_1566531535152">
   <g>
    <polygon class="fil0" points="-0,0.72 379.36,759.43 454.97,627.14 141.31,0.72 "/>
    <path class="fil0" d="M469.65 395.49c-30.36,-42.68 -44.58,-90.11 -44.58,-143.21 0,-69.24 24.67,-128.03 73.97,-178.3 49.32,-49.3 109.07,-73.97 178.3,-73.97l332.89 0 -65.44 112.87 -14.23 14.22 -253.21 0c-34.14,0 -63.55,12.32 -88.2,36.99 -25.61,24.65 -37.94,54.05 -37.94,88.2 0,35.09 12.33,65.44 37.94,90.1 24.65,24.66 54.05,36.98 88.2,36.98l112.85 -0.94 -220.02 380.3 -145.11 0 155.54 -272.19c-44.59,-18.02 -81.57,-48.37 -110.97,-91.04z"/>
   </g>
   <path class="fil0" d="M1348.83 538.26c13.55,5.93 28.22,9.03 43.73,9.03 15.51,0 30.18,-2.83 43.71,-8.74l-43.71 -29.06c-10.44,0 -20.03,-1.97 -29.33,-5.64 -9.03,-3.94 -16.93,-9.31 -23.7,-16.36 -7.05,-6.77 -12.41,-14.67 -16.36,-23.68 -3.94,-9.32 -5.91,-18.9 -5.91,-29.33 0,-10.44 1.97,-20.03 5.91,-29.33 3.96,-9.03 9.32,-16.93 16.09,-23.7 6.77,-7.06 14.67,-12.41 23.97,-16.36 9.03,-3.67 18.9,-5.64 29.33,-5.64 20.31,0 38.07,7.05 53.03,21.71l26.79 -26.22c-10.44,-10.44 -22.57,-18.62 -36.1,-24.55 -13.54,-5.91 -28.2,-8.74 -43.71,-8.74 -15.51,0 -30.18,3.1 -43.73,9.03 -13.81,5.93 -25.67,13.83 -36.1,24.26 -10.15,10.15 -18.33,22 -24.25,35.54 -5.93,13.81 -9.03,28.48 -9.03,44 0,15.22 3.1,29.61 9.03,43.44 5.91,13.81 14.1,25.67 24.25,36.1 10.44,10.15 22.29,18.33 36.1,24.25l0 0z"/>
   <polygon id="_1" class="fil0" points="1751.99,321.64 1751.99,415.58 1639.16,415.58 1601.65,453.36 1601.65,547.29 1639.16,547.29 1639.16,453.36 1751.99,453.36 1751.99,547.29 1789.5,547.29 1789.5,321.64 "/>
   <path id="_2" class="fil0" d="M2112.55 439.26c9.03,-12.68 13.25,-26.79 13.25,-42.58 0,-20.59 -7.33,-38.07 -22,-53.03 -14.66,-14.67 -32.44,-22 -53.02,-22l-99 0 19.46 33.57 4.23 4.23 75.31 0c10.15,0 18.9,3.67 26.23,11 7.61,7.33 11.28,16.07 11.28,26.23 0,10.44 -3.67,19.46 -11.28,26.8 -7.33,7.33 -16.09,11 -26.23,11l-33.57 -0.29 65.44 113.11 43.15 0 -46.25 -80.95c13.26,-5.36 24.25,-14.39 33,-27.09z"/>
   <polygon id="_3" class="fil0" points="2323.05,358.88 2285.54,321.64 2285.54,547.29 2285.54,547.29 2323.05,509.49 "/>
   <path id="_4" class="fil0" d="M2565.99 453.36c7.9,0 14.39,2.83 20.03,8.46 5.36,5.65 8.46,12.13 8.46,19.75 0,3.94 -0.85,7.61 -2.26,11 -1.41,3.67 -3.39,6.48 -5.93,9.02 -2.54,2.54 -5.64,4.52 -9.31,5.93 -3.38,1.41 -7.05,1.97 -11,1.97l0 37.8c18.33,0 33.84,-6.49 46.54,-19.18 12.97,-12.98 19.46,-28.49 19.46,-46.54 0,-18.06 -6.49,-33.57 -19.46,-46.54 -12.7,-12.7 -28.2,-19.19 -46.54,-19.19l-56.13 0c-8.18,0 -14.67,-2.81 -20.31,-8.46 -5.36,-5.64 -7.9,-12.12 -7.9,-20.02 0,-3.67 0.57,-7.33 1.98,-10.72 1.41,-3.38 3.38,-6.49 5.91,-9.03 2.83,-2.81 5.64,-4.78 9.31,-6.2 3.39,-1.41 7.06,-1.97 11,-1.97l0 -37.8c-18.33,0 -33.84,6.49 -46.54,19.46 -12.68,12.97 -19.18,28.2 -19.18,46.26 0,18.33 6.49,33.84 19.18,46.81 12.7,12.7 28.2,19.18 46.54,19.18l56.13 0z"/>
   <polygon id="_5" class="fil0" points="2789.75,321.64 2789.75,359.44 2789.75,547.29 2827.55,547.29 2827.55,359.44 2902.57,359.44 2902.57,321.64 "/>
   <polygon id="_6" class="fil0" points="3090.23,358.88 3052.72,321.64 3052.72,547.29 3052.72,547.29 3090.23,509.49 "/>
   <path id="_7" class="fil0" d="M3304.97 472.26l0 0 33.28 -66.28 33 66.28 42.32 0 -75.32 -150.62 -112.82 225.65 41.74 0 19.19 -37.8 18.61 -37.23zm127.21 37.52l-41.74 0 0 0 18.61 37.51 42.03 0 -18.9 -37.51z"/>
   <polygon id="_8" class="fil0" points="3734.06,321.64 3734.06,456.75 3584.01,321.64 3584.01,378.62 3771.58,547.29 3771.58,547.02 3771.58,546.73 3771.58,321.64 "/>
   <polygon id="_9" class="fil0" points="4004.36,321.64 4117.17,547.29 4138.33,505.26 4046.39,321.64 "/>
   <path id="_10" class="fil0" d="M4290.45 544.19l0 3.1 150.34 0 0 -37.8 -112.83 0 -37.51 34.7zm0 -222.54l37.51 37.8 112.83 0 0 -37.8 -150.34 0zm0 94.21l0 37.51 37.51 0 112.83 0 0 -37.51 -112.83 0 -37.51 0z"/>
   <path id="_11" class="fil0" d="M4749.73 439.26c9.03,-12.68 13.25,-26.79 13.25,-42.58 0,-20.59 -7.33,-38.07 -22,-53.03 -14.66,-14.67 -32.44,-22 -53.02,-22l-99 0 19.46 33.57 4.23 4.23 75.31 0c10.15,0 18.9,3.67 26.23,11 7.61,7.33 11.28,16.07 11.28,26.23 0,10.44 -3.67,19.46 -11.28,26.8 -7.33,7.33 -16.09,11 -26.23,11l-33.57 -0.29 65.44 113.11 43.15 0 -46.25 -80.95c13.26,-5.36 24.25,-14.39 33,-27.09z"/>
   <path id="_12" class="fil0" d="M5066.85 503.01c-9.59,4.23 -20.03,6.48 -31.32,6.48 -20.58,0 -38.64,-7.05 -53.31,-21.71 -14.67,-14.67 -21.71,-32.72 -21.71,-53.31 0,-20.59 7.05,-38.36 21.71,-53.03 14.96,-14.96 32.72,-22 53.31,-22 20.88,0 38.36,7.33 53.03,22l27.07 -26.51c-10.44,-10.44 -22.57,-18.62 -36.1,-24.55 -13.81,-5.91 -28.48,-8.74 -44,-8.74 -31.31,0 -57.82,11 -79.54,33.29 -22.28,22 -33.28,48.51 -33.28,79.54 0,31.31 11.28,57.54 33.28,79.54 22,22 48.23,33.28 79.54,33.28 9.88,0 19.19,-1.13 28.22,-3.67 9.31,-2.26 17.77,-5.64 25.66,-10.16 8.19,-4.51 15.52,-9.87 22.29,-16.07 7.05,-6.2 12.97,-13.26 18.05,-20.87l-37.51 -12.41c-7.33,8.18 -15.8,14.38 -25.38,18.9zm-31.32 -49.65l56.7 0 37.51 -37.51 -94.21 0 0 37.51z"/>
   <path id="_13" class="fil0" d="M5382.27 472.26l0 0 33.28 -66.28 33 66.28 42.32 0 -75.32 -150.62 -112.82 225.65 41.74 0 19.19 -37.8 18.61 -37.23zm127.21 37.52l-41.74 0 0 0 18.61 37.51 42.03 0 -18.9 -37.51z"/>
   <path id="_14" class="fil0" d="M5822.08 439.26c9.03,-12.68 13.25,-26.79 13.25,-42.58 0,-20.59 -7.33,-38.07 -22,-53.03 -14.66,-14.67 -32.44,-22 -53.02,-22l-99 0 19.46 33.57 4.23 4.23 75.31 0c10.15,0 18.9,3.67 26.23,11 7.61,7.33 11.28,16.07 11.28,26.23 0,10.44 -3.67,19.46 -11.28,26.8 -7.33,7.33 -16.09,11 -26.23,11l-33.57 -0.29 65.44 113.11 43.15 0 -46.25 -80.95c13.26,-5.36 24.25,-14.39 33,-27.09z"/>
   <path id="_15" class="fil0" d="M6088.71 472.26l0 0 33.28 -66.28 33 66.28 42.32 0 -75.32 -150.62 -112.82 225.65 41.74 0 19.19 -37.8 18.61 -37.23zm127.21 37.52l-41.74 0 0 0 18.61 37.51 42.03 0 -18.9 -37.51z"/>
  </g>
 </g>
</svg>
