<?xml version="1.0" encoding="UTF-8"?>
<!DOCTYPE svg PUBLIC "-//W3C//DTD SVG 1.1//EN" "http://www.w3.org/Graphics/SVG/1.1/DTD/svg11.dtd">
<!-- Creator: CorelDRAW 2021 (64-Bit) -->
<svg xmlns="http://www.w3.org/2000/svg" xml:space="preserve" width="66.9208mm" height="8.1518mm" version="1.1" style="shape-rendering:geometricPrecision; text-rendering:geometricPrecision; image-rendering:optimizeQuality; fill-rule:evenodd; clip-rule:evenodd"
viewBox="0 0 7694.78 937.32"
 xmlns:xlink="http://www.w3.org/1999/xlink"
 xmlns:xodm="http://www.corel.com/coreldraw/odm/2003">
 <defs>
  <style type="text/css">
   <![CDATA[
    .fil0 {fill:white;fill-rule:nonzero}
   ]]>
  </style>
 </defs>
 <g id="Capa_x0020_1">
  <metadata id="CorelCorpID_0Corel-Layer"/>
  <g id="_1566764992992">
   <g>
    <polygon class="fil0" points="-0,0.9 468.21,937.32 561.53,774.05 174.41,0.9 "/>
    <path class="fil0" d="M579.65 488.13c-37.46,-52.67 -55.02,-111.21 -55.02,-176.75 0,-85.46 30.45,-158.02 91.3,-220.07 60.87,-60.86 134.62,-91.3 220.08,-91.3l410.85 0 -80.76 139.3 -17.56 17.56 -312.52 0c-42.14,0 -78.43,15.2 -108.87,45.65 -31.6,30.42 -46.82,66.71 -46.82,108.85 0,43.31 15.22,80.76 46.82,111.2 30.44,30.44 66.72,45.65 108.87,45.65l139.28 -1.16 -271.54 469.37 -179.11 0 191.98 -335.94c-55.02,-22.25 -100.68,-59.7 -136.96,-112.37z"/>
   </g>
   <path class="fil0" d="M1664.76 664.35c16.72,7.31 34.82,11.14 53.96,11.14 19.14,0 37.24,-3.48 53.95,-10.79l-53.95 -35.86c-12.88,0 -24.72,-2.44 -36.21,-6.96 -11.13,-4.88 -20.88,-11.49 -29.24,-20.19 -8.69,-8.36 -15.32,-18.1 -20.19,-29.24 -4.86,-11.49 -7.3,-23.32 -7.3,-36.21 0,-12.88 2.44,-24.71 7.3,-36.2 4.88,-11.14 11.5,-20.89 19.85,-29.24 8.36,-8.7 18.1,-15.32 29.59,-20.19 11.14,-4.53 23.33,-6.96 36.21,-6.96 25.07,0 46.99,8.69 65.44,26.8l33.07 -32.38c-12.88,-12.88 -27.85,-22.97 -44.56,-30.29 -16.71,-7.3 -34.81,-10.79 -53.95,-10.79 -19.14,0 -37.24,3.83 -53.96,11.14 -17.05,7.3 -31.68,17.05 -44.56,29.93 -12.53,12.53 -22.62,27.16 -29.93,43.87 -7.31,17.05 -11.14,35.15 -11.14,54.3 0,18.8 3.83,36.55 11.14,53.62 7.31,17.05 17.4,31.68 29.93,44.56 12.88,12.53 27.5,22.62 44.56,29.93l0 0z"/>
   <polygon id="_1" class="fil0" points="2162.31,397.01 2162.31,512.93 2023.06,512.93 1976.77,559.58 1976.77,675.49 2023.06,675.49 2023.06,559.58 2162.31,559.58 2162.31,675.49 2208.6,675.49 2208.6,397.01 "/>
   <path id="_2" class="fil0" d="M2607.28 542.17c11.14,-15.66 16.36,-33.07 16.36,-52.56 0,-25.41 -9.05,-46.99 -27.15,-65.45 -18.11,-18.1 -40.04,-27.15 -65.45,-27.15l-122.18 0 24.02 41.42 5.22 5.23 92.94 0c12.53,0 23.33,4.52 32.38,13.57 9.39,9.05 13.92,19.85 13.92,32.38 0,12.88 -4.53,24.02 -13.92,33.07 -9.05,9.05 -19.85,13.57 -32.38,13.57l-41.42 -0.34 80.75 139.59 53.26 0 -57.09 -99.91c16.36,-6.61 29.94,-17.75 40.73,-33.41z"/>
   <polygon id="_3" class="fil0" points="2867.08,442.96 2820.78,397.01 2820.78,675.49 2820.78,675.49 2867.08,628.84 "/>
   <path id="_4" class="fil0" d="M3166.9 559.58c9.75,0 17.75,3.47 24.72,10.44 6.61,6.96 10.44,14.97 10.44,24.36 0,4.88 -1.05,9.41 -2.78,13.58 -1.75,4.52 -4.17,8 -7.31,11.14 -3.13,3.13 -6.96,5.57 -11.49,7.3 -4.17,1.75 -8.7,2.44 -13.58,2.44l0 46.65c22.63,0 41.77,-8 57.45,-23.68 16.01,-16.01 24.01,-35.15 24.01,-57.43 0,-22.27 -8,-41.42 -24.01,-57.43 -15.67,-15.66 -34.82,-23.68 -57.45,-23.68l-69.27 0c-10.1,0 -18.1,-3.47 -25.07,-10.44 -6.61,-6.96 -9.75,-14.97 -9.75,-24.71 0,-4.53 0.7,-9.05 2.44,-13.23 1.75,-4.17 4.19,-8 7.31,-11.14 3.48,-3.47 6.97,-5.91 11.49,-7.66 4.17,-1.74 8.7,-2.43 13.58,-2.43l0 -46.65c-22.63,0 -41.77,8 -57.43,24.02 -15.67,16.01 -23.68,34.81 -23.68,57.09 0,22.62 8,41.77 23.68,57.78 15.66,15.66 34.81,23.68 57.43,23.68l69.27 0z"/>
   <polygon id="_5" class="fil0" points="3443.05,397.01 3443.05,443.66 3443.05,675.49 3489.7,675.49 3489.7,443.66 3582.3,443.66 3582.3,397.01 "/>
   <polygon id="_6" class="fil0" points="3813.88,442.96 3767.59,397.01 3767.59,675.49 3767.59,675.49 3813.88,628.84 "/>
   <path id="_7" class="fil0" d="M4078.9 582.9l0 0 41.07 -81.8 40.73 81.8 52.21 0 -92.94 -185.88 -139.23 278.48 51.51 0 23.68 -46.65 22.97 -45.95zm157 46.3l-51.52 0 0 0 22.97 46.29 51.87 0 -23.32 -46.29z"/>
   <polygon id="_8" class="fil0" points="4608.47,397.01 4608.47,563.75 4423.27,397.01 4423.27,467.33 4654.76,675.49 4654.76,675.15 4654.76,674.79 4654.76,397.01 "/>
   <polygon id="_9" class="fil0" points="4942.04,397.01 5081.29,675.49 5107.39,623.62 4993.91,397.01 "/>
   <path id="_10" class="fil0" d="M5295.12 671.66l0 3.83 185.54 0 0 -46.65 -139.24 0 -46.29 42.82zm0 -274.65l46.29 46.65 139.24 0 0 -46.65 -185.54 0zm0 116.26l0 46.3 46.29 0 139.24 0 0 -46.3 -139.24 0 -46.29 0z"/>
   <path id="_11" class="fil0" d="M5861.93 542.17c11.14,-15.66 16.36,-33.07 16.36,-52.56 0,-25.41 -9.05,-46.99 -27.15,-65.45 -18.11,-18.1 -40.04,-27.15 -65.45,-27.15l-122.18 0 24.02 41.42 5.22 5.23 92.94 0c12.53,0 23.33,4.52 32.38,13.57 9.39,9.05 13.92,19.85 13.92,32.38 0,12.88 -4.53,24.02 -13.92,33.07 -9.05,9.05 -19.85,13.57 -32.38,13.57l-41.42 -0.34 80.75 139.59 53.26 0 -57.09 -99.91c16.36,-6.61 29.94,-17.75 40.73,-33.41z"/>
   <path id="_12" class="fil0" d="M6253.31 620.84c-11.83,5.22 -24.71,8 -38.63,8 -25.41,0 -47.7,-8.7 -65.79,-26.8 -18.1,-18.1 -26.8,-40.38 -26.8,-65.79 0,-25.41 8.7,-47.34 26.8,-65.44 18.44,-18.45 40.38,-27.15 65.79,-27.15 25.76,0 47.34,9.05 65.44,27.15l33.41 -32.72c-12.88,-12.88 -27.85,-22.97 -44.56,-30.29 -17.05,-7.3 -35.15,-10.79 -54.3,-10.79 -38.65,0 -71.37,13.57 -98.17,41.07 -27.49,27.16 -41.07,59.87 -41.07,98.16 0,38.65 13.92,71.01 41.07,98.17 27.16,27.15 59.53,41.07 98.17,41.07 12.18,0 23.66,-1.39 34.81,-4.53 11.49,-2.78 21.93,-6.96 31.68,-12.52 10.1,-5.58 19.14,-12.19 27.5,-19.85 8.69,-7.66 16.01,-16.36 22.27,-25.76l-46.29 -15.32c-9.05,10.1 -19.5,17.75 -31.33,23.32zm-38.63 -61.26l69.97 0 46.29 -46.3 -116.26 0 0 46.3z"/>
   <path id="_13" class="fil0" d="M6642.6 582.9l0 0 41.07 -81.8 40.73 81.8 52.21 0 -92.94 -185.88 -139.23 278.48 51.51 0 23.68 -46.65 22.97 -45.95zm157 46.3l-51.52 0 0 0 22.97 46.29 51.87 0 -23.32 -46.29z"/>
   <path id="_14" class="fil0" d="M7185.39 542.17c11.14,-15.66 16.36,-33.07 16.36,-52.56 0,-25.41 -9.05,-46.99 -27.15,-65.45 -18.11,-18.1 -40.04,-27.15 -65.45,-27.15l-122.18 0 24.02 41.42 5.22 5.23 92.94 0c12.53,0 23.33,4.52 32.38,13.57 9.39,9.05 13.92,19.85 13.92,32.38 0,12.88 -4.53,24.02 -13.92,33.07 -9.05,9.05 -19.85,13.57 -32.38,13.57l-41.42 -0.34 80.75 139.59 53.26 0 -57.09 -99.91c16.36,-6.61 29.94,-17.75 40.73,-33.41z"/>
   <path id="_15" class="fil0" d="M7514.46 582.9l0 0 41.07 -81.8 40.73 81.8 52.21 0 -92.94 -185.88 -139.23 278.48 51.51 0 23.68 -46.65 22.97 -45.95zm157 46.3l-51.52 0 0 0 22.97 46.29 51.87 0 -23.32 -46.29z"/>
  </g>
 </g>
</svg>
